# xmcd CD database file
#
# Track frame offsets:
#	150
#	20109
#	41245
#	64918
#	92234
#	108612
#	131185
#	151263
#	175379
#	196563
#	217161
#	239332
#	260565
#	284270
#	305485
#
# Disc length: 4339 seconds
#
# Revision: 0
# Processed by: cddbd v1.4PL0 Copyright (c) Steve Scherf et al.
# Submitted via: CDex 1.50beta9
#
DISCID=e710f10f
DTITLE=Andy Montañez - Lo Mejor De... Andy Montañez
DYEAR=1900
DGENRE=Salsa
TTITLE0=Aqui El Que Baila Gana
TTITLE1=Payaso 
TTITLE2=Genio y Figura 
TTITLE3=Me Gusta 
TTITLE4=Cobarde Cobarde
TTITLE5=Me Lo Estas Poniendo Dificil
TTITLE6=Medley  
TTITLE7=Casi Te Envidio 
TTITLE8=Boca Mentirosa
TTITLE9=El Eco del Tambo
TTITLE10=Cuando Yo Te Vi
TTITLE11=Te Voy a Saciar de Mi
TTITLE12=Martha
TTITLE13=Ella 
TTITLE14=Te Voy A Enseñar
EXTD=
EXTT0=
EXTT1=
EXTT2=
EXTT3=
EXTT4=
EXTT5=
EXTT6=
EXTT7=
EXTT8=
EXTT9=
EXTT10=
EXTT11=
EXTT12=
EXTT13=
EXTT14=
PLAYORDER=
